<svg width="45" height="45" viewBox="0 0 45 45" fill="none" xmlns="http://www.w3.org/2000/svg">
<path d="M26.6594 16.4996C26.6594 14.3178 24.8867 12.6133 22.7731 12.6133C20.5913 12.6133 18.8867 14.386 18.8867 16.4996C18.8867 18.6815 20.5913 20.386 22.7731 20.386C24.9549 20.386 26.6594 18.6815 26.6594 16.4996ZM22.7731 19.0906C21.3413 19.0906 20.1822 17.9315 20.1822 16.4996C20.1822 15.0678 21.3413 13.9087 22.7731 13.9087C24.2049 13.9087 25.364 15.0678 25.364 16.4996C25.364 17.9315 24.2049 19.0906 22.7731 19.0906Z" fill="#313131"/>
<path d="M33.3416 42.818C33.3416 43.1589 33.6143 43.4998 34.0234 43.4998C34.3643 43.4998 34.7053 43.2271 34.7053 42.818C34.7053 40.7043 32.728 38.9998 30.2053 38.7271C29.8643 37.0225 28.1598 35.6589 26.0462 35.4543V31.0907C26.2507 30.6816 26.5234 30.2725 26.7962 29.7952C28.6371 31.0225 30.7507 33.4771 31.5689 35.4543C31.6371 35.7271 31.9098 35.8634 32.1825 35.8634C32.4553 35.8634 32.728 35.6589 32.7962 35.3861C32.8643 35.2498 33.9553 31.568 34.0916 30.2725C34.5689 26.318 33.1371 22.8407 30.2053 21.1361C30.6143 19.4998 30.8189 17.8634 30.8189 16.2271C30.7507 6.74978 23.4553 1.02251 23.1825 0.81796C22.978 0.613414 22.6371 0.613414 22.3643 0.81796C22.0234 1.02251 14.7962 6.74978 14.7962 16.2271C14.7962 17.8634 15.0007 19.4998 15.4098 21.1361C12.5462 22.9089 11.0462 26.3861 11.5234 30.2725C11.728 31.568 12.8189 35.2498 12.8189 35.3861C12.8871 35.6589 13.1598 35.8634 13.4325 35.8634C13.7053 35.8634 13.978 35.7271 14.0462 35.4543C14.8643 33.4771 16.9098 31.0225 18.7507 29.7952C19.0234 30.2043 19.228 30.6816 19.4325 31.0907V35.4543C17.3189 35.6589 15.6143 37.0225 15.2734 38.7271C12.7507 38.9998 10.7734 40.7043 10.7734 42.818C10.7734 43.1589 11.0462 43.4998 11.4553 43.4998C11.7962 43.4998 12.1371 43.2271 12.1371 42.818C12.1371 41.2498 13.8416 40.0225 15.8871 40.0225C16.228 40.0225 16.5689 39.7498 16.5689 39.3407C16.5689 37.9089 18.1371 36.7498 20.1143 36.7498C20.4553 36.7498 20.7962 36.4771 20.7962 36.068V31.568H24.6143V36.068C24.6143 36.4089 24.8871 36.7498 25.2962 36.7498C27.2734 36.7498 28.8416 37.9089 28.8416 39.3407C28.8416 39.6816 29.1143 40.0225 29.5234 40.0225C31.6371 40.0225 33.3416 41.318 33.3416 42.818ZM32.728 30.1361C32.6598 30.818 32.2507 32.318 31.9098 33.4771C30.7507 31.6361 28.978 29.7271 27.3416 28.7043C28.2962 26.8634 29.1825 24.7498 29.7962 22.4998C32.0462 23.9998 33.1371 26.7952 32.728 30.1361ZM22.7734 2.1816C23.5916 2.9316 25.5689 4.84069 27.1371 7.63614C24.5462 9.40887 21.0689 9.40887 18.4098 7.63614C19.978 4.84069 21.9553 2.9316 22.7734 2.1816ZM13.6371 33.4089C13.2962 32.2498 12.8871 30.7498 12.8189 30.068C12.4098 26.7952 13.5007 23.9998 15.7507 22.4316C16.3643 24.6816 17.2507 26.7952 18.2053 28.6361C16.5689 29.7271 14.7962 31.568 13.6371 33.4089ZM20.5234 30.2725C18.1371 26.1134 16.0916 20.9998 16.0916 16.2271C16.0916 13.4316 16.8416 10.9089 17.7962 8.86341C19.2962 9.81796 21.0007 10.3634 22.7734 10.3634C24.5462 10.3634 26.2507 9.88614 27.7507 8.86341C28.7053 10.9089 29.4553 13.4316 29.4553 16.2271C29.4553 21.3407 27.0689 26.6589 24.9553 30.2725H20.5234Z" fill="#313131"/>
<path d="M26.3869 41.1815C26.046 41.1815 25.7051 41.4542 25.7051 41.8633C25.7051 42.2724 25.9778 42.5451 26.3869 42.5451C27.2733 42.5451 28.0914 43.0906 28.0914 43.7042C28.0914 44.0451 28.3642 44.3861 28.7733 44.3861C29.1142 44.3861 29.4551 44.1133 29.4551 43.7042C29.3869 42.2724 28.0233 41.1815 26.3869 41.1815ZM16.1596 43.6361C16.1596 43.977 16.4324 44.3179 16.8414 44.3179C17.1824 44.3179 17.5233 44.0451 17.5233 43.6361C17.5233 43.0224 18.2733 42.477 19.2278 42.477C19.5687 42.477 19.9096 42.2042 19.9096 41.7951C19.9096 41.3861 19.6369 41.1133 19.2278 41.1133C17.4551 41.1815 16.1596 42.2724 16.1596 43.6361ZM20.1142 38.3179V39.7497C20.1142 40.0906 20.3869 40.4315 20.796 40.4315C21.1369 40.4315 21.4778 40.1588 21.4778 39.7497V38.3179C21.4778 37.977 21.2051 37.6361 20.796 37.6361C20.3869 37.7042 20.1142 37.977 20.1142 38.3179ZM22.4324 35.2497V38.3861C22.4324 38.727 22.7051 39.0679 23.1142 39.0679C23.4551 39.0679 23.796 38.7951 23.796 38.3861V35.2497C23.796 34.9088 23.5233 34.5679 23.1142 34.5679C22.7733 34.5679 22.4324 34.8406 22.4324 35.2497ZM36.6823 21.8861C37.0233 21.8861 37.3642 21.6133 37.3642 21.2042V20.727H37.8414C38.1824 20.727 38.5233 20.4542 38.5233 20.0451C38.5233 19.6361 38.2505 19.3633 37.8414 19.3633H37.3642V18.8861C37.3642 18.5451 37.0914 18.2042 36.6823 18.2042C36.3414 18.2042 36.0005 18.477 36.0005 18.8861V19.3633H35.5233C35.1823 19.3633 34.8414 19.6361 34.8414 20.0451C34.8414 20.4542 35.1142 20.727 35.5233 20.727H36.0005V21.2042C36.0687 21.5451 36.3414 21.8861 36.6823 21.8861ZM35.2505 14.3861V13.9088H35.7278C36.0687 13.9088 36.4096 13.6361 36.4096 13.227C36.4096 12.8179 36.1369 12.5451 35.7278 12.5451H35.2505V12.0679C35.2505 11.727 34.9778 11.3861 34.5687 11.3861C34.1596 11.3861 33.8869 11.6588 33.8869 12.0679V12.5451H33.4096C33.0687 12.5451 32.7278 12.8179 32.7278 13.227C32.7278 13.6361 33.0005 13.9088 33.4096 13.9088H33.8869V14.3861C33.8869 14.727 34.1596 15.0679 34.5687 15.0679C34.9778 15.0679 35.2505 14.727 35.2505 14.3861ZM39.1369 8.93151V8.45423H39.6142C39.9551 8.45423 40.296 8.18151 40.296 7.77242C40.296 7.43151 40.0233 7.0906 39.6142 7.0906H39.1369V6.74969C39.1369 6.40878 38.8642 6.06787 38.4551 6.06787C38.046 6.06787 37.7733 6.3406 37.7733 6.74969V7.22696H37.296C36.9551 7.22696 36.6142 7.49969 36.6142 7.90878C36.6142 8.24969 36.8869 8.5906 37.296 8.5906H37.7733V9.06787C37.7733 9.40878 38.046 9.74969 38.4551 9.74969C38.8642 9.74969 39.1369 9.3406 39.1369 8.93151ZM9.40962 10.7724V10.2951H9.8869C10.2278 10.2951 10.5687 10.0224 10.5687 9.61333C10.5687 9.27242 10.296 8.93151 9.8869 8.93151H9.40962V8.45423C9.40962 8.11333 9.1369 7.77242 8.72781 7.77242C8.3869 7.77242 8.04599 8.04514 8.04599 8.45423V8.93151H7.56871C7.22781 8.93151 6.8869 9.20424 6.8869 9.61333C6.8869 9.95424 7.15962 10.2951 7.56871 10.2951H8.04599V10.7724C8.04599 11.1133 8.31871 11.4542 8.72781 11.4542C9.1369 11.4542 9.40962 11.1815 9.40962 10.7724ZM10.9778 18.5451C11.3187 18.5451 11.6596 18.2724 11.6596 17.8633V17.3861H12.1369C12.4778 17.3861 12.8187 17.1133 12.8187 16.7042C12.8187 16.3633 12.546 16.0224 12.1369 16.0224H11.5914V15.5451C11.5914 15.2042 11.3187 14.8633 10.9096 14.8633C10.5687 14.8633 10.2278 15.1361 10.2278 15.5451V16.0224H9.75053C9.40962 16.0224 9.06871 16.2951 9.06871 16.7042C9.06871 17.0451 9.34144 17.3861 9.75053 17.3861H10.2278V17.8633C10.296 18.2042 10.5687 18.5451 10.9778 18.5451ZM6.54599 26.7951C6.8869 26.7951 7.22781 26.5224 7.22781 26.1133V25.6361H7.70508C8.04599 25.6361 8.3869 25.3633 8.3869 24.9542C8.3869 24.6133 8.11417 24.2724 7.70508 24.2724H7.22781V23.7951C7.22781 23.4542 6.95508 23.1133 6.54599 23.1133C6.1369 23.1133 5.86417 23.3861 5.86417 23.7951V24.2724H5.3869C5.04599 24.2724 4.70508 24.5451 4.70508 24.9542C4.70508 25.2951 4.97781 25.6361 5.3869 25.6361H5.86417V26.1133C5.86417 26.5224 6.1369 26.7951 6.54599 26.7951Z" fill="#313131"/>
</svg>
