<svg width="45" height="45" viewBox="0 0 45 45" fill="none" xmlns="http://www.w3.org/2000/svg">
<g clip-path="url(#clip0_885_4890)">
<path d="M22.5 43.125C19.3152 43.137 16.1806 42.3324 13.3953 40.7879C10.6101 39.2435 8.26729 37.0108 6.59063 34.3031C6.57108 34.2785 6.55293 34.2529 6.53625 34.2262C6.08483 33.4919 5.68269 32.7283 5.3325 31.9406C4.28686 29.5555 3.74798 26.9792 3.75 24.375C3.72188 24.2569 2.8125 18.165 2.8125 15C2.8125 5.94937 10.8581 4.84125 12.7369 4.70625C13.74 3.81187 17.37 0.9375 22.5 0.9375C30.675 0.9375 42.1875 5.30063 42.1875 15C42.1875 18.1069 41.2781 24.2531 41.2406 24.5119C41.2344 27.0712 40.7014 29.6018 39.675 31.9463C39.2569 32.8669 38.7994 33.7087 38.3063 34.4681C38.2708 34.5232 38.2293 34.5742 38.1825 34.62C34.845 39.8925 28.9425 43.125 22.5 43.125ZM8.0925 33.18C8.11248 33.2043 8.13065 33.23 8.14687 33.2569C9.65254 35.7087 11.7638 37.7318 14.2775 39.1317C16.7912 40.5315 19.6228 41.261 22.5 41.25C25.3327 41.2604 28.1218 40.5525 30.6067 39.1924C33.0915 37.8322 35.191 35.8643 36.7087 33.4725C36.7462 33.4162 36.7875 33.36 36.8362 33.3131C37.1737 32.7675 37.5863 32.0081 37.9594 31.1869C38.8969 29.0194 39.375 26.7206 39.375 24.375C39.3937 24.1763 40.3125 17.97 40.3125 15C40.3125 6.59438 29.8969 2.8125 22.5 2.8125C17.3231 2.8125 13.8225 6.25313 13.7888 6.28875C13.6123 6.4628 13.3748 6.56103 13.1269 6.5625C12.7819 6.56438 4.6875 6.69375 4.6875 15C4.6875 18.0262 5.60625 24.1744 5.61562 24.2362C5.625 26.7262 6.10313 29.0175 7.04813 31.1812C7.38 31.9237 7.725 32.5819 8.0925 33.18Z" fill="#313131"/>
<path d="M39.9153 29.0623C39.712 29.0621 39.5142 28.9957 39.3519 28.8733C39.1895 28.7509 39.0714 28.579 39.0153 28.3835L36.7934 20.6211C23.2297 20.5086 17.7359 17.1298 15.5497 14.7692C14.134 18.4067 9.8009 19.9929 8.2559 20.4523L5.98715 28.3817C5.91323 28.6141 5.75164 28.8086 5.53668 28.9238C5.32172 29.039 5.07031 29.0659 4.83583 28.9988C4.60134 28.9317 4.40224 28.7759 4.28078 28.5644C4.15932 28.3529 4.12506 28.1024 4.18528 27.8661L6.60028 19.4286C6.64581 19.2681 6.73348 19.1228 6.85416 19.0078C6.97484 18.8927 7.12413 18.812 7.28653 18.7742C7.3559 18.7573 14.1284 17.1036 14.1284 12.2979C14.1286 12.0689 14.2126 11.8478 14.3646 11.6765C14.5166 11.5052 14.726 11.3954 14.9534 11.3679C15.1813 11.3377 15.4124 11.3933 15.6016 11.5239C15.7908 11.6546 15.9247 11.8509 15.9772 12.0748C15.9922 12.1254 18.1109 18.7498 37.5003 18.7498C37.9184 18.7498 38.2859 19.0254 38.4003 19.4286L40.8153 27.8661C40.8553 28.0055 40.8625 28.1524 40.8361 28.2951C40.8097 28.4378 40.7506 28.5725 40.6633 28.6884C40.5761 28.8044 40.4631 28.8985 40.3333 28.9634C40.2035 29.0283 40.0604 29.0621 39.9153 29.0623Z" fill="#313131"/>
<path d="M40.275 29.9998C40.0575 29.9998 39.8381 29.9792 39.6206 29.9604C39.498 29.9485 39.3789 29.9124 39.2702 29.8544C39.1614 29.7964 39.0652 29.7174 38.987 29.6222C38.9088 29.5269 38.8502 29.4172 38.8145 29.2992C38.7787 29.1813 38.7666 29.0575 38.7787 28.9348C38.8067 28.689 38.9291 28.4637 39.1202 28.3066C39.3112 28.1495 39.5559 28.0729 39.8025 28.0929C39.96 28.1079 40.1175 28.1248 40.275 28.1248C40.9951 28.1287 41.6894 27.8566 42.2151 27.3644C42.7408 26.8723 43.058 26.1974 43.1014 25.4786C43.1449 24.7597 42.9113 24.0516 42.4487 23.4996C41.9862 22.9477 41.3297 22.5939 40.6144 22.5111C40.4921 22.4964 40.3739 22.4578 40.2666 22.3975C40.1592 22.3372 40.0648 22.2563 39.9887 22.1595C39.9127 22.0627 39.8564 21.9519 39.8231 21.8333C39.7899 21.7148 39.7803 21.5908 39.795 21.4686C39.8092 21.3461 39.8474 21.2277 39.9076 21.1201C39.9678 21.0125 40.0486 20.9179 40.1456 20.8417C40.2425 20.7655 40.3535 20.7093 40.4723 20.6763C40.591 20.6432 40.7152 20.634 40.8375 20.6492C42.0219 20.7959 43.1058 21.3883 43.8689 22.3059C44.632 23.2235 45.0168 24.3973 44.9452 25.5885C44.8735 26.7798 44.3507 27.899 43.4832 28.7185C42.6156 29.5379 41.4684 29.9961 40.275 29.9998ZM4.6875 29.9998C3.44475 29.9983 2.25334 29.504 1.37458 28.6252C0.495827 27.7465 0.00148862 26.5551 0 25.3123C0 22.9161 1.79437 20.9098 4.17187 20.6492C4.41064 20.6377 4.64481 20.7177 4.82668 20.8728C5.00855 21.0279 5.12443 21.2466 5.15072 21.4842C5.17702 21.7217 5.11174 21.9604 4.96819 22.1516C4.82465 22.3427 4.61363 22.472 4.37813 22.5129C3.69203 22.5958 3.05958 22.9257 2.59893 23.4408C2.13828 23.956 1.88094 24.6213 1.875 25.3123C1.875 26.8629 3.13687 28.1248 4.6875 28.1248C4.8375 28.1248 4.97813 28.1117 5.09813 28.0873C5.21872 28.0616 5.34322 28.0601 5.46439 28.083C5.58556 28.1059 5.70097 28.1526 5.80391 28.2205C5.90686 28.2883 5.99528 28.376 6.06403 28.4784C6.13278 28.5807 6.18048 28.6957 6.20438 28.8167C6.2542 29.0601 6.20537 29.3133 6.06861 29.5208C5.93185 29.7282 5.71835 29.8728 5.475 29.9229C5.23125 29.9736 4.965 29.9998 4.6875 29.9998ZM15 28.1248C13.4494 28.1248 12.1875 26.8629 12.1875 25.3123C12.1875 23.7617 13.4494 22.4998 15 22.4998C16.5506 22.4998 17.8125 23.7617 17.8125 25.3123C17.8125 26.8629 16.5506 28.1248 15 28.1248ZM15 24.3748C14.8766 24.3751 14.7545 24.3996 14.6407 24.447C14.5268 24.4945 14.4234 24.5639 14.3363 24.6513C14.1605 24.8278 14.062 25.0669 14.0625 25.3161C14.0627 25.4394 14.0873 25.5615 14.1347 25.6754C14.1822 25.7893 14.2516 25.8927 14.339 25.9798C14.4264 26.0668 14.5301 26.1358 14.6441 26.1828C14.7582 26.2298 14.8804 26.2538 15.0037 26.2536C15.2529 26.2531 15.4916 26.1536 15.6674 25.9771C15.8433 25.8006 15.9417 25.5615 15.9412 25.3123C15.9408 25.0632 15.8413 24.8244 15.6648 24.6486C15.4883 24.4728 15.2491 24.3743 15 24.3748ZM30 28.1248C28.4494 28.1248 27.1875 26.8629 27.1875 25.3123C27.1875 23.7617 28.4494 22.4998 30 22.4998C31.5506 22.4998 32.8125 23.7617 32.8125 25.3123C32.8125 26.8629 31.5506 28.1248 30 28.1248ZM30 24.3748C29.8766 24.3751 29.7545 24.3996 29.6407 24.447C29.5268 24.4945 29.4234 24.5639 29.3363 24.6513C29.2493 24.7387 29.1803 24.8424 29.1333 24.9564C29.0863 25.0705 29.0623 25.1927 29.0625 25.3161C29.0627 25.4394 29.0873 25.5615 29.1347 25.6754C29.1822 25.7893 29.2516 25.8927 29.339 25.9798C29.4264 26.0668 29.5301 26.1358 29.6441 26.1828C29.7582 26.2298 29.8804 26.2538 30.0038 26.2536C30.2529 26.2531 30.4916 26.1536 30.6674 25.9771C30.8433 25.8006 30.9417 25.5615 30.9413 25.3123C30.9408 25.0632 30.8413 24.8244 30.6648 24.6486C30.4883 24.4728 30.2491 24.3743 30 24.3748ZM22.5 35.6679C21.515 35.6695 20.5393 35.4765 19.629 35.1C18.7188 34.7236 17.8918 34.1711 17.1956 33.4742C17.0249 33.2974 16.9304 33.0606 16.9325 32.8148C16.9346 32.5689 17.0332 32.3338 17.207 32.16C17.3809 31.9862 17.616 31.8876 17.8618 31.8854C18.1076 31.8833 18.3444 31.9778 18.5213 32.1486C19.5769 33.2023 21.0075 33.7941 22.4991 33.7941C23.9906 33.7941 25.4212 33.2023 26.4769 32.1486C26.6537 31.9778 26.8905 31.8833 27.1363 31.8854C27.3821 31.8876 27.6173 31.9862 27.7911 32.16C27.9649 32.3338 28.0635 32.5689 28.0656 32.8148C28.0678 33.0606 27.9733 33.2974 27.8025 33.4742C27.1071 34.1716 26.2805 34.7245 25.3705 35.101C24.4604 35.4775 23.4849 35.6702 22.5 35.6679Z" fill="#313131"/>
</g>
<defs>
<clipPath id="clip0_885_4890">
<rect width="45" height="45" fill="white"/>
</clipPath>
</defs>
</svg>
