<svg width="45" height="45" viewBox="0 0 45 45" fill="none" xmlns="http://www.w3.org/2000/svg">
<path d="M13.1169 28.8968C14.1037 28.8968 14.9037 28.0969 14.9037 27.11C14.9037 26.1232 14.1037 25.3232 13.1169 25.3232C12.1301 25.3232 11.3301 26.1232 11.3301 27.11C11.3301 28.0969 12.1301 28.8968 13.1169 28.8968Z" fill="#313131"/>
<path d="M31.8845 28.8968C32.8713 28.8968 33.6712 28.0969 33.6712 27.11C33.6712 26.1232 32.8713 25.3232 31.8845 25.3232C30.8976 25.3232 30.0977 26.1232 30.0977 27.11C30.0977 28.0969 30.8976 28.8968 31.8845 28.8968Z" fill="#313131"/>
<path d="M45 26.3518C45 23.7636 43.1239 21.6068 40.6604 21.1661V20.3851C40.6604 10.3713 32.5137 2.22461 22.5001 2.22461C12.4863 2.22461 4.33956 10.3713 4.33956 20.3851V21.1661C1.87609 21.607 0 23.7637 0 26.3518C0 28.9624 1.90841 31.1344 4.40316 31.549C4.75429 35.5502 6.58492 38.5057 9.86098 40.345C12.7744 41.9806 16.9085 42.7756 22.5001 42.7756C28.0915 42.7756 32.2257 41.9805 35.1391 40.345C38.4151 38.5057 40.2457 35.5503 40.5968 31.549C43.0916 31.1345 45 28.9624 45 26.3518ZM1.86028 26.3518C1.86028 24.7944 2.9104 23.4785 4.33945 23.0725V29.6311C2.9104 29.2253 1.86028 27.9093 1.86028 26.3518ZM38.8002 30.0852C38.8002 34.1702 37.3047 36.9956 34.2284 38.7228C31.6004 40.1982 27.7641 40.9154 22.5001 40.9154C17.2361 40.9154 13.3996 40.1982 10.7717 38.7228C7.69527 36.9956 6.19984 34.1702 6.19984 30.0852V20.3851C6.19984 13.0243 11.1046 6.78868 17.817 4.77156C22.9308 4.83621 25.6543 8.52769 25.6543 11.2007C25.6543 13.2479 23.9887 14.9136 21.9414 14.9136C20.4062 14.9136 19.1571 13.6645 19.1571 12.1293C19.1571 11.0037 20.0729 10.0879 21.1986 10.0879C21.4452 10.0879 21.6818 9.98989 21.8563 9.81546C22.0307 9.64102 22.1287 9.40444 22.1287 9.15775C22.1287 8.91106 22.0307 8.67448 21.8563 8.50004C21.6818 8.32561 21.4452 8.22761 21.1986 8.22761C19.0471 8.22761 17.2969 9.9779 17.2969 12.1293C17.2969 14.6903 19.3804 16.7738 21.9414 16.7738C25.0145 16.7738 27.5146 14.2737 27.5146 11.2007C27.5146 9.27006 26.5445 7.19295 24.9198 5.64426C24.2699 5.02479 23.5304 4.50403 22.7235 4.08779C31.6087 4.20801 38.8002 11.4719 38.8002 20.3851V30.0852ZM40.6604 29.6313V23.0726C42.0896 23.4786 43.1397 24.7945 43.1397 26.3519C43.1397 27.9093 42.0895 29.2253 40.6604 29.6313Z" fill="#313131"/>
<path d="M26.0968 29.6719C24.1134 31.6555 20.8857 31.6555 18.9023 29.6719C18.7279 29.4975 18.4913 29.3995 18.2446 29.3995C17.9979 29.3995 17.7613 29.4975 17.5869 29.6719C17.4125 29.8463 17.3145 30.0829 17.3145 30.3296C17.3145 30.5763 17.4125 30.8129 17.5869 30.9873C18.9413 32.3417 20.7205 33.019 22.4997 33.019C24.2788 33.019 26.0579 32.3417 27.4124 30.9873C27.5869 30.8129 27.6848 30.5763 27.6848 30.3296C27.6848 30.0829 27.5868 29.8463 27.4124 29.6718C27.2379 29.4974 27.0013 29.3994 26.7546 29.3994C26.5079 29.3994 26.2713 29.4974 26.0968 29.6719Z" fill="#313131"/>
</svg>
