<svg width="45" height="45" viewBox="0 0 45 45" fill="none" xmlns="http://www.w3.org/2000/svg">
<g clip-path="url(#clip0_885_4895)">
<path d="M13.7133 29.3681C14.5905 29.3681 15.3017 28.6569 15.3017 27.7797C15.3017 26.9025 14.5905 26.1914 13.7133 26.1914C12.8361 26.1914 12.125 26.9025 12.125 27.7797C12.125 28.6569 12.8361 29.3681 13.7133 29.3681Z" fill="#313131"/>
<path d="M31.2856 29.3681C32.1628 29.3681 32.8739 28.6569 32.8739 27.7797C32.8739 26.9025 32.1628 26.1914 31.2856 26.1914C30.4084 26.1914 29.6973 26.9025 29.6973 27.7797C29.6973 28.6569 30.4084 29.3681 31.2856 29.3681Z" fill="#313131"/>
<path d="M13.7134 22.686C12.8458 22.686 12.0301 23.0239 11.4166 23.6374C11.3378 23.7162 11.2752 23.8097 11.2326 23.9127C11.1899 24.0157 11.168 24.126 11.168 24.2374C11.168 24.3489 11.1899 24.4592 11.2326 24.5622C11.2752 24.6652 11.3378 24.7587 11.4166 24.8375C11.4954 24.9163 11.5889 24.9788 11.6918 25.0215C11.7948 25.0641 11.9051 25.086 12.0166 25.086C12.128 25.086 12.2383 25.0641 12.3413 25.0215C12.4442 24.9788 12.5378 24.9163 12.6166 24.8375C12.7603 24.693 12.9312 24.5785 13.1195 24.5005C13.3077 24.4225 13.5096 24.3826 13.7134 24.3832C14.1277 24.3832 14.5172 24.5445 14.8101 24.8375C14.8888 24.9164 14.9824 24.979 15.0853 25.0217C15.1883 25.0643 15.2987 25.0862 15.4102 25.086C15.5781 25.0861 15.7422 25.0363 15.8817 24.9431C16.0213 24.8499 16.1301 24.7173 16.1944 24.5623C16.2586 24.4072 16.2754 24.2365 16.2426 24.0719C16.2098 23.9073 16.129 23.7561 16.0102 23.6374C15.3966 23.024 14.5809 22.686 13.7134 22.686ZM28.9889 23.6374C28.9101 23.7162 28.8476 23.8097 28.8049 23.9127C28.7623 24.0157 28.7403 24.126 28.7403 24.2374C28.7403 24.3489 28.7623 24.4592 28.8049 24.5622C28.8476 24.6652 28.9101 24.7587 28.9889 24.8375C29.0677 24.9163 29.1613 24.9788 29.2642 25.0215C29.3672 25.0641 29.4775 25.086 29.5889 25.086C29.7004 25.086 29.8107 25.0641 29.9137 25.0215C30.0166 24.9788 30.1101 24.9163 30.1889 24.8375C30.7936 24.2327 31.7778 24.2328 32.3825 24.8375C32.5482 25.0032 32.7653 25.086 32.9826 25.086C33.1998 25.086 33.4169 25.0032 33.5826 24.8375C33.6614 24.7587 33.7239 24.6652 33.7666 24.5622C33.8093 24.4592 33.8312 24.3489 33.8312 24.2374C33.8312 24.126 33.8093 24.0157 33.7666 23.9127C33.7239 23.8097 33.6614 23.7162 33.5826 23.6374C32.3163 22.3711 30.2555 22.371 28.9889 23.6374ZM24.1339 34.5237C23.9198 34.739 23.6651 34.9097 23.3845 35.0259C23.104 35.1421 22.8032 35.2015 22.4995 35.2007C22.1959 35.2015 21.8951 35.1421 21.6146 35.0259C21.3341 34.9097 21.0794 34.739 20.8653 34.5237C20.7061 34.3646 20.4903 34.2752 20.2653 34.2752C20.0402 34.2752 19.8244 34.3646 19.6653 34.5237C19.5865 34.6025 19.5239 34.696 19.4813 34.799C19.4386 34.902 19.4167 35.0123 19.4167 35.1238C19.4167 35.2352 19.4386 35.3455 19.4813 35.4485C19.5239 35.5515 19.5865 35.645 19.6653 35.7238C20.4223 36.4809 21.4289 36.8978 22.4996 36.8978C23.5703 36.8978 24.577 36.4808 25.334 35.7238C25.4931 35.5647 25.5825 35.3488 25.5825 35.1238C25.5825 34.8987 25.4931 34.6828 25.334 34.5237C25.1749 34.3646 24.959 34.2752 24.7339 34.2752C24.5089 34.2752 24.293 34.3646 24.1339 34.5237Z" fill="#313131"/>
<path d="M42.5214 26.9613C42.5214 24.6562 40.855 22.7342 38.664 22.3333V8.13736C38.6651 7.23278 38.4418 6.34207 38.0141 5.54499C37.5864 4.74792 36.9676 4.0694 36.2133 3.5702C35.5072 3.10052 34.7016 2.80153 33.8601 2.69685C33.0185 2.59217 32.1642 2.68469 31.3646 2.96708L26.037 1.15875C21.9433 -0.230898 17.6341 -0.373459 13.5754 0.746346C8.26206 2.21237 5.21588 5.31244 4.74566 9.71911C4.32522 10.2728 3.99717 10.8909 3.77425 11.5494L3.36099 12.7725C3.1392 13.4292 3.38369 14.1193 3.96964 14.4897C4.55537 14.8601 5.28377 14.7852 5.78199 14.3031C5.94892 14.1422 6.13419 14.0014 6.33399 13.8836V22.3334C4.14296 22.7343 2.47656 24.6562 2.47656 26.9614C2.47656 29.3587 4.27884 31.3417 6.59938 31.63C7.18214 34.8478 8.71351 37.8161 11.0551 40.1913C14.1122 43.2925 18.1762 45.0002 22.499 45.0002H22.5006C26.8178 44.9998 30.8766 43.3184 33.9293 40.2657C36.3139 37.8811 37.8617 34.8826 38.4253 31.6266C40.7329 31.3262 42.5214 29.3493 42.5214 26.9613ZM35.275 4.98446C36.3502 5.6978 36.9668 6.84699 36.9668 8.13736V19.242C34.3329 18.8326 32.3106 16.5495 32.3106 13.8027L32.2403 4.47256C33.2766 4.19942 34.3571 4.3755 35.275 4.98446ZM5.21726 12.5806L5.3822 12.0926C5.59641 11.4597 5.9415 10.879 6.39501 10.3883C6.84852 9.89757 7.40029 9.50787 8.01438 9.24454C8.62876 8.98187 9.29156 8.85153 9.95965 8.86201C10.6277 8.87248 11.2861 9.02353 11.892 9.30532C14.4617 10.5021 17.5682 9.85509 19.4463 7.73195L19.6566 7.49424C19.8014 7.32507 19.874 7.10574 19.8586 6.88355C19.8432 6.66137 19.741 6.45415 19.5742 6.30658C19.4074 6.15902 19.1893 6.08294 18.9669 6.09476C18.7445 6.10658 18.5356 6.20535 18.3854 6.36977L18.1752 6.60748C16.7911 8.17204 14.502 8.64873 12.6085 7.76685C11.7863 7.38444 10.8928 7.17946 9.98619 7.16526C9.07955 7.15106 8.18008 7.32796 7.34634 7.68443C7.19396 7.75052 7.04418 7.82245 6.89734 7.90007C7.8837 5.27043 10.271 3.41863 14.027 2.3823C17.7566 1.35319 21.7209 1.48588 25.4917 2.76575L30.5432 4.48041L30.6094 8.86512C28.3601 11.9233 25.0797 13.9935 21.3415 14.7054C17.5138 15.4342 13.6087 14.6629 10.3457 12.5336C8.75127 11.4934 6.7412 11.5378 5.21726 12.5806ZM4.17372 26.9613C4.17372 25.5969 5.0869 24.4424 6.33399 24.075V28.6745C6.33399 29.0719 6.34831 29.467 6.3762 29.8596C5.10769 29.506 4.17372 28.3411 4.17372 26.9613ZM32.7293 39.0654C29.9971 41.7976 26.3645 43.3024 22.5005 43.3029H22.499C18.6344 43.3029 14.9991 41.7745 12.2636 38.9997C9.53429 36.231 8.03114 32.5641 8.03114 28.6744V13.4835C8.52588 13.5208 9.00307 13.683 9.41804 13.955C13.0506 16.3254 17.3976 17.1841 21.6588 16.3726C25.1177 15.7139 28.225 14.0111 30.6133 11.4998V13.8026C30.6133 17.4866 33.3942 20.5315 36.9667 20.9529V28.8349C36.9668 32.6996 35.462 36.3329 32.7293 39.0654ZM38.6312 29.8568C38.6522 29.518 38.664 29.1774 38.664 28.835V24.075C39.9111 24.4424 40.8242 25.5969 40.8242 26.9613C40.8242 28.3376 39.895 29.5002 38.6312 29.8568Z" fill="#313131"/>
</g>
<defs>
<clipPath id="clip0_885_4895">
<rect width="45" height="45" fill="white"/>
</clipPath>
</defs>
</svg>
