<svg width="45" height="45" viewBox="0 0 45 45" fill="none" xmlns="http://www.w3.org/2000/svg">
<path d="M28.0436 32.7531C27.8799 32.6842 27.6955 32.6831 27.531 32.7499C27.3664 32.8167 27.235 32.946 27.1655 33.1095C26.7783 34.029 26.1282 34.8137 25.2967 35.365C24.4653 35.9164 23.4895 36.2099 22.4918 36.2088C20.5439 36.2088 18.7444 35.0699 17.9074 33.3078C17.8696 33.2283 17.8166 33.1571 17.7513 33.0981C17.686 33.0391 17.6098 32.9936 17.5269 32.9641C17.444 32.9345 17.3561 32.9217 17.2682 32.9261C17.1803 32.9306 17.0942 32.9523 17.0147 32.99C16.9353 33.0278 16.864 33.0808 16.805 33.1461C16.746 33.2114 16.7005 33.2876 16.671 33.3705C16.6415 33.4534 16.6286 33.5413 16.633 33.6292C16.6375 33.7171 16.6592 33.8032 16.6969 33.8827C17.7546 36.1097 20.0294 37.5488 22.4918 37.5488C23.7529 37.5501 24.9864 37.1791 26.0375 36.4821C27.0886 35.7852 27.9105 34.7934 28.4001 33.6312C28.4343 33.5501 28.4523 33.4631 28.4529 33.3751C28.4536 33.2871 28.4369 33.1998 28.4038 33.1183C28.3707 33.0368 28.3218 32.9625 28.26 32.8999C28.1982 32.8372 28.1247 32.7873 28.0436 32.7531ZM19.1951 26.412C19.255 26.3467 19.3014 26.2701 19.3315 26.1867C19.3616 26.1034 19.3749 26.0149 19.3706 25.9263C19.3662 25.8378 19.3444 25.751 19.3063 25.671C19.2682 25.5909 19.2145 25.5193 19.1485 25.4601C19.0825 25.4009 19.0054 25.3555 18.9217 25.3263C18.838 25.2972 18.7493 25.2849 18.6608 25.2903C18.5723 25.2957 18.4858 25.3185 18.4062 25.3576C18.3267 25.3966 18.2556 25.4511 18.1972 25.5178C17.375 26.4357 16.5522 26.8837 15.7438 26.8426C14.4923 26.7827 13.5936 25.583 13.5838 25.5696C13.4793 25.4264 13.3224 25.3305 13.1473 25.3029C12.9722 25.2752 12.7933 25.3182 12.6498 25.4222C12.5059 25.5266 12.4094 25.6839 12.3814 25.8594C12.3534 26.035 12.3963 26.2145 12.5007 26.3584C12.5516 26.4285 13.7718 28.0825 15.6665 28.1803C15.7264 28.1834 15.7858 28.1852 15.8452 28.1852C17.0141 28.1852 18.1405 27.5894 19.1951 26.412ZM31.1724 25.5178C30.3506 26.4352 29.5247 26.8854 28.719 26.8426C27.471 26.7832 26.5733 25.591 26.5572 25.5696C26.452 25.4276 26.2949 25.333 26.1202 25.3062C25.9455 25.2795 25.7674 25.3229 25.6245 25.4269C25.4816 25.5309 25.3857 25.6872 25.3575 25.8617C25.3293 26.0361 25.3712 26.2147 25.4741 26.3584C25.525 26.4285 26.7461 28.0829 28.6422 28.1803C28.7016 28.1839 28.761 28.1852 28.8199 28.1852C29.9893 28.1852 31.1157 27.5894 32.1702 26.412C32.2302 26.3467 32.2765 26.2701 32.3067 26.1867C32.3368 26.1034 32.3501 26.0149 32.3458 25.9263C32.3414 25.8378 32.3196 25.751 32.2815 25.671C32.2433 25.5909 32.1897 25.5193 32.1237 25.4601C32.0577 25.4009 31.9806 25.3555 31.8969 25.3263C31.8132 25.2972 31.7245 25.2849 31.636 25.2903C31.5475 25.2957 31.461 25.3185 31.3814 25.3576C31.3018 25.3966 31.2308 25.4511 31.1724 25.5178Z" fill="#313131"/>
<path d="M38.1279 19.7462C38.0225 17.9185 37.4544 13.0402 34.3953 10.1714C32.7109 8.59157 30.546 7.87871 27.9639 8.0538C26.4601 8.15563 25.0884 8.27578 23.878 8.38119C16.3412 9.0409 14.0669 9.23921 11.7421 2.76278C11.6393 2.47514 11.341 2.29469 11.035 2.32328C10.9473 2.3318 10.862 2.35728 10.784 2.39831C10.5879 2.50194 5.96642 4.99737 4.6153 10.0043C3.79213 13.054 4.37099 16.3387 6.33401 19.7779C3.43749 20.2268 1.21094 22.7294 1.21094 25.7487C1.21094 29.0874 3.92523 31.8035 7.26171 31.8035H7.69719C10.0019 37.9682 15.7132 42.3458 22.3817 42.3458C29.0484 42.3458 34.7579 37.9686 37.0622 31.8035H37.4061C40.7417 31.8035 43.4556 29.0874 43.4556 25.7487C43.4551 22.657 41.1231 20.1031 38.1279 19.7462ZM5.90523 10.3657C6.8155 6.97514 9.52042 4.82095 10.7679 3.98169C13.3848 10.6435 16.5985 10.3621 23.9946 9.71578C25.1983 9.61037 26.5632 9.49112 28.0546 9.39018C30.2481 9.24055 32.0731 9.83191 33.4756 11.1451C36.2243 13.7196 36.7089 18.3915 36.7942 19.9401C30.9239 21.2519 28.8983 14.98 28.8135 14.7058C28.7766 14.5859 28.7069 14.4788 28.6123 14.3966C28.5176 14.3145 28.4018 14.2605 28.278 14.2408C28.1542 14.2212 28.0273 14.2367 27.9119 14.2856C27.7964 14.3344 27.697 14.4147 27.6249 14.5173C23.8918 19.827 17.7968 20.9441 15.3496 21.1782C12.1431 21.4841 9.15014 20.8959 7.85173 19.7114C5.79223 16.3722 5.13699 13.2278 5.90523 10.3657ZM2.55089 25.7487C2.55089 23.3748 4.31828 21.4113 6.60513 21.0902V25.7487C6.60513 27.3862 6.83516 28.9677 7.25724 30.4631C4.66176 30.4609 2.55089 28.3469 2.55089 25.7487ZM22.3813 41.0059C14.4211 41.0059 7.94508 34.1618 7.94508 25.7492V21.4006C9.34712 22.1755 11.353 22.6021 13.63 22.6021C14.2469 22.6015 14.8634 22.5715 15.4774 22.5123C17.9581 22.2751 23.9285 21.1893 27.9997 16.2369C28.9823 18.2919 31.614 22.3149 36.8134 21.3028V25.7492C36.8134 34.1614 30.3392 41.0059 22.3813 41.0059ZM37.5026 30.4587C37.9348 28.926 38.1538 27.3411 38.1534 25.7487V21.1036C40.3951 21.4622 42.1152 23.4056 42.1152 25.7487C42.1152 28.3156 40.0543 30.4064 37.5026 30.4587Z" fill="#313131"/>
</svg>
