<svg width="14" height="14" viewBox="0 0 14 14" fill="none" xmlns="http://www.w3.org/2000/svg">
<path d="M7.00003 9.33336C6.92326 9.3338 6.84715 9.31909 6.77608 9.29006C6.70501 9.26103 6.64037 9.21826 6.58586 9.16419L3.08586 5.66419C2.97602 5.55435 2.91431 5.40537 2.91431 5.25003C2.91431 5.09468 2.97602 4.9457 3.08586 4.83586C3.1957 4.72602 3.34468 4.66431 3.50003 4.66431C3.65537 4.66431 3.80435 4.72602 3.91419 4.83586L7.00003 7.92753L10.0859 4.84169C10.1975 4.74613 10.341 4.69619 10.4878 4.70186C10.6346 4.70753 10.7739 4.76839 10.8778 4.87228C10.9817 4.97617 11.0425 5.11543 11.0482 5.26225C11.0539 5.40906 11.0039 5.5526 10.9084 5.66419L7.40836 9.16419C7.29971 9.27196 7.15306 9.33272 7.00003 9.33336Z" fill="black"/>
</svg>
