<svg width="45" height="45" viewBox="0 0 45 45" fill="none" xmlns="http://www.w3.org/2000/svg">
<path d="M26.044 22.4341H37.8605C39.3503 22.4341 40.571 23.6548 40.571 25.1446C40.571 26.6369 39.3503 27.8552 37.8605 27.8552C39.3503 27.8552 40.571 29.0759 40.571 30.5657C40.571 32.058 39.3503 33.2763 37.8605 33.2763C39.3503 33.2763 40.571 34.497 40.571 35.9868C40.571 37.4791 39.3503 38.6999 37.8605 38.6999H35.7977C37.2875 38.6999 38.5082 39.9182 38.5082 41.4105C38.5082 42.9003 37.2875 44.121 35.7977 44.121H23.5378C20.6977 44.121 15.6777 42.706 13.4902 40.8574" stroke="#313131" stroke-width="1.75781" stroke-miterlimit="10" stroke-linecap="round" stroke-linejoin="round"/>
<path d="M13.4902 25.1623C18.6772 21.8539 20.2642 17.91 21.2607 11.6169C21.5747 9.62379 22.1601 7.72543 25.0028 9.14548C26.8688 10.0772 28.4857 13.2213 27.5688 16.6793L26.0441 22.4343M37.8606 27.8555H34.1659M37.8606 33.2766H34.1659M35.7977 38.7002H34.1659" stroke="#313131" stroke-width="1.75781" stroke-miterlimit="10" stroke-linecap="round" stroke-linejoin="round"/>
<path d="M13.4908 25.162V40.8574M9.16585 27.4815V27.4864M16.4331 5.06188L14.871 3.67673M32.3577 5.06188L33.9198 3.67673M24.3954 2.96666V0.878906M11.4977 11.2802L13.5854 11.3674M37.293 11.2802L35.2053 11.3674M11.9312 43.411H5.98931C5.13229 43.411 4.42969 42.7084 4.42969 41.8514V24.168C4.42969 23.311 5.13229 22.6084 5.98931 22.6084H11.9312C12.7882 22.6084 13.4908 23.311 13.4908 24.168V41.8515C13.4908 42.7085 12.7882 43.411 11.9312 43.411Z" stroke="#313131" stroke-width="1.75781" stroke-miterlimit="10" stroke-linecap="round" stroke-linejoin="round"/>
</svg>
