<svg width="24" height="24" viewBox="0 0 24 24" fill="none" xmlns="http://www.w3.org/2000/svg">
<circle cx="11.9984" cy="11.9999" r="9.21291" stroke="#D6D6D6" stroke-width="0.774194"/>
<circle cx="11.9984" cy="11.9999" r="9.6" fill="#18CFA3"/>
<path d="M7.89844 12.0085L10.3941 14.5042L16.0984 8.7998" stroke="white" stroke-width="1.5" stroke-linecap="round" stroke-linejoin="round"/>
<circle cx="12" cy="12" r="11.5161" fill="#FF2222" stroke="#F70000" stroke-width="0.967742"/>
<g clip-path="url(#clip0_885_4412)">
<path d="M12.7329 12.0063L15.848 8.89119C16.0507 8.68856 16.0507 8.36093 15.848 8.15832C15.6454 7.95569 15.3177 7.95569 15.1151 8.15832L12 11.2734L8.88492 8.15832C8.68219 7.95569 8.35468 7.95569 8.15205 8.15832C7.94932 8.36095 7.94932 8.68856 8.15205 8.89119L11.2671 12.0063L8.15207 15.1215C7.94934 15.3241 7.94934 15.6517 8.15207 15.8543C8.20014 15.9025 8.25725 15.9408 8.32014 15.9668C8.38302 15.9929 8.45044 16.0063 8.51851 16.0062C8.65116 16.0062 8.78387 15.9554 8.88494 15.8543L12 12.7392L15.1151 15.8543C15.1632 15.9025 15.2203 15.9407 15.2832 15.9668C15.3461 15.9929 15.4135 16.0062 15.4816 16.0062C15.6142 16.0062 15.7469 15.9554 15.848 15.8543C16.0507 15.6517 16.0507 15.3241 15.848 15.1215L12.7329 12.0063Z" fill="white"/>
</g>
<defs>
<clipPath id="clip0_885_4412">
<rect width="8" height="8" fill="white" transform="translate(8 8)"/>
</clipPath>
</defs>
</svg>
