<svg width="45" height="45" viewBox="0 0 45 45" fill="none" xmlns="http://www.w3.org/2000/svg">
<g clip-path="url(#clip0_885_4925)">
<path d="M33.4225 0C31.3001 0 29.2425 0.579902 27.4457 1.68029C26.9741 1.29494 26.3837 1.08467 25.7747 1.08519H23.1218C22.8137 1.08519 22.5157 1.15532 22.2466 1.2832C21.8458 0.520928 21.0457 0 20.1263 0H18.3505C17.9864 0 17.6913 0.295049 17.6913 0.65918C17.6913 1.02331 17.9864 1.31836 18.3505 1.31836H20.1263C20.7195 1.31836 21.202 1.80097 21.202 2.39414V2.55551C21.202 3.2603 22.1673 3.47098 22.4605 2.82981C22.5791 2.57089 22.8387 2.40346 23.1218 2.40346H25.7747C26.5089 2.40346 27.1061 3.00067 27.1061 3.73474V8.40234C27.1061 8.67551 26.9646 8.91598 26.7513 9.0552V7.36321C26.7513 6.93765 26.3529 6.62238 25.938 6.72231C24.6718 7.02668 23.6284 6.87384 22.8364 6.2681C22.2353 5.80852 21.9929 5.24004 21.9924 5.23898C21.8022 4.76332 21.1641 4.67754 20.8548 5.08579C20.8298 5.11893 18.2864 8.38327 13.2108 6.91286C13.1126 6.88443 13.0091 6.87923 12.9085 6.89766C12.808 6.91609 12.7131 6.95766 12.6314 7.01907C12.5497 7.08048 12.4833 7.16006 12.4376 7.25152C12.392 7.34297 12.3682 7.4438 12.3682 7.54603V9.18193H12.2716C12.2031 9.18186 12.1374 9.15464 12.089 9.10623C12.0406 9.05782 12.0133 8.99218 12.0133 8.92371V3.58699C12.0133 2.33604 13.031 1.31836 14.2819 1.31836H15.7149C16.079 1.31836 16.374 1.02331 16.374 0.65918C16.374 0.295049 16.079 0 15.7149 0H14.2819C12.304 0 10.6949 1.6091 10.6949 3.58699V8.9238C10.6949 9.79321 11.4022 10.5004 12.2716 10.5004H12.3682V13.5166H9.98834C8.95747 13.5166 8.11882 14.3553 8.11882 15.3861V26.3003C8.11882 26.5004 8.15125 26.693 8.2097 26.8739C7.4425 26.9975 6.85398 27.6624 6.85398 28.4639V30.0682C6.85398 30.1688 6.86444 30.2668 6.8822 30.3624H3.99218C1.85441 30.3624 0.115234 32.1016 0.115234 34.2394V35.355C0.115234 36.0346 0.668154 36.5875 1.34781 36.5875H5.09055V44.3408C5.09055 44.705 5.3856 45 5.74973 45C6.11386 45 6.40891 44.705 6.40891 44.3408V36.5875H7.82412V44.3408C7.82412 44.705 8.11917 45 8.4833 45C8.84743 45 9.14248 44.705 9.14248 44.3408V36.5875H13.9182C14.2823 36.5875 14.5774 36.2925 14.5774 35.9284C14.5774 35.5642 14.2823 35.2692 13.9182 35.2692H1.43359V34.2393C1.43359 32.8285 2.58145 31.6807 3.99218 31.6807H35.1273C36.5382 31.6807 37.6859 32.8286 37.6859 34.2393V35.2692H16.5537C16.1896 35.2692 15.8945 35.5642 15.8945 35.9284C15.8945 36.2925 16.1896 36.5875 16.5537 36.5875H29.9771V44.3408C29.9771 44.705 30.2722 45 30.6363 45C31.0004 45 31.2955 44.705 31.2955 44.3408V36.5875H32.7106V44.3408C32.7106 44.705 33.0057 45 33.3698 45C33.7339 45 34.029 44.705 34.029 44.3408V36.5875H37.7718C38.4515 36.5875 39.0044 36.0346 39.0044 35.355V34.2394C39.0044 32.1016 37.2652 30.3624 35.1274 30.3624H32.2372C32.255 30.2669 32.2654 30.1688 32.2654 30.0682V28.4639C32.2654 27.6624 31.677 26.9975 30.9098 26.8739C30.97 26.6886 31.0006 26.4951 31.0007 26.3003V22.6655C31.7966 22.8367 32.6085 22.923 33.4226 22.9228C36.7387 22.9228 39.8908 21.487 42.0703 18.9835C42.1851 18.8516 42.2428 18.6796 42.2307 18.5051C42.2187 18.3307 42.1378 18.1682 42.0059 18.0534C41.8741 17.9386 41.702 17.8809 41.5276 17.893C41.3532 17.905 41.1907 17.9859 41.0759 18.1178C40.1237 19.2124 38.9479 20.0901 37.6276 20.6915C36.3074 21.293 34.8735 21.6043 33.4227 21.6045C32.6021 21.6045 31.7898 21.5053 31.0008 21.3121V20.0302C31.7889 20.2525 32.6039 20.3649 33.4227 20.3641C38.3317 20.3641 42.3255 16.3704 42.3255 11.4614C42.3255 6.55233 38.3315 2.55858 33.4225 2.55858C31.6213 2.55858 29.8899 3.0963 28.4245 4.09289C28.4099 3.87035 28.4892 3.38229 28.2326 2.74641C29.7987 1.81151 31.5826 1.31836 33.4225 1.31836C39.0154 1.31836 43.5655 5.86854 43.5655 11.4614C43.5655 13.0815 43.195 14.6295 42.4642 16.0626C42.3848 16.2184 42.3705 16.3993 42.4244 16.5656C42.4784 16.7319 42.5962 16.8699 42.7519 16.9494C42.9077 17.0288 43.0886 17.0431 43.2549 16.9891C43.4212 16.9352 43.5592 16.8173 43.6387 16.6616C44.4649 15.0413 44.8839 13.2917 44.8839 11.4615C44.8839 5.1416 39.7423 0 33.4225 0ZM13.6866 8.39004C16.3486 8.94964 18.3463 8.34891 19.5945 7.70581C20.3239 7.32999 20.8812 6.90073 21.2656 6.55304C21.472 6.81705 21.7087 7.05596 21.9707 7.26486C22.6442 7.80117 23.7644 8.34592 25.433 8.15071V13.5167H13.6866V8.39004ZM9.43727 15.3861C9.43743 15.24 9.49555 15.0999 9.59888 14.9966C9.7022 14.8933 9.8423 14.8351 9.98843 14.835H29.1312C29.2773 14.8351 29.4174 14.8933 29.5207 14.9966C29.6241 15.0999 29.6822 15.24 29.6823 15.3861V26.3003C29.6822 26.4464 29.6241 26.5865 29.5207 26.6899C29.4174 26.7932 29.2773 26.8513 29.1312 26.8515H9.98843C9.8423 26.8513 9.7022 26.7932 9.59888 26.6899C9.49555 26.5865 9.43743 26.4464 9.43727 26.3003V15.3861ZM30.947 30.0681C30.9469 30.1461 30.9159 30.2209 30.8608 30.276C30.8056 30.3312 30.7308 30.3623 30.6528 30.3623H8.46669C8.38868 30.3623 8.31388 30.3312 8.25872 30.2761C8.20356 30.2209 8.17252 30.1461 8.17243 30.0681V28.4638C8.17252 28.3858 8.20356 28.311 8.25873 28.2559C8.31389 28.2007 8.38868 28.1697 8.46669 28.1696H30.6528C30.7308 28.1697 30.8056 28.2007 30.8608 28.2559C30.9159 28.311 30.9469 28.3858 30.947 28.4638V30.0681ZM33.4225 3.87694C37.6046 3.87694 41.007 7.27928 41.007 11.4614C41.007 15.6434 37.6046 19.0457 33.4225 19.0457C32.599 19.0465 31.7809 18.9127 31.0006 18.6496V15.3861C31.0006 14.3553 30.162 13.5166 29.1311 13.5166H26.7513V10.4571C27.7052 10.2601 28.4245 9.41361 28.4245 8.40234V5.75859C29.8086 4.54395 31.5719 3.87694 33.4225 3.87694Z" fill="#313131"/>
<path d="M17.0322 9.95295C16.9457 9.95294 16.8599 9.96998 16.78 10.0031C16.7 10.0362 16.6273 10.0848 16.5661 10.146C16.5049 10.2072 16.4563 10.2799 16.4232 10.3599C16.3901 10.4398 16.373 10.5256 16.373 10.6121V11.1588C16.373 11.5229 16.6681 11.818 17.0322 11.818C17.3964 11.818 17.6914 11.5229 17.6914 11.1588V10.6121C17.6914 10.4373 17.622 10.2696 17.4983 10.146C17.3747 10.0224 17.2071 9.95295 17.0322 9.95295ZM22.0865 9.95295C21.9999 9.95294 21.9142 9.96998 21.8342 10.0031C21.7542 10.0362 21.6815 10.0848 21.6203 10.146C21.5591 10.2072 21.5106 10.2799 21.4774 10.3599C21.4443 10.4398 21.4273 10.5256 21.4273 10.6121V11.1588C21.4273 11.5229 21.7223 11.818 22.0865 11.818C22.4506 11.818 22.7456 11.5229 22.7456 11.1588V10.6121C22.7456 10.4373 22.6762 10.2696 22.5526 10.146C22.429 10.0224 22.2613 9.95295 22.0865 9.95295ZM18.8181 24.2825C18.9028 24.4 19.0141 24.4956 19.143 24.5616C19.2718 24.6277 19.4145 24.6622 19.5593 24.6624H19.5594C19.7043 24.6622 19.847 24.6276 19.9758 24.5616C20.1047 24.4956 20.2161 24.3999 20.3009 24.2825L22.3916 21.3766C22.5037 21.2213 22.5641 21.0346 22.5641 20.8431C22.5641 20.6516 22.5038 20.4649 22.3918 20.3095L20.3008 17.4033C20.216 17.2859 20.1047 17.1903 19.9758 17.1243C19.8469 17.0583 19.7042 17.0238 19.5594 17.0237H19.5593C19.4145 17.0238 19.2718 17.0584 19.143 17.1244C19.0141 17.1904 18.9028 17.286 18.8181 17.4034L16.727 20.3096C16.6151 20.465 16.5549 20.6516 16.5549 20.8431C16.555 21.0345 16.6152 21.2211 16.7271 21.3764L18.8181 24.2825ZM19.5593 18.6305L21.1513 20.843L19.5593 23.0557L17.9674 20.843L19.5593 18.6305ZM32.8009 11.7678C32.9214 11.8177 33.0539 11.8307 33.1818 11.8053C33.3097 11.7799 33.4271 11.7171 33.5194 11.625L35.4095 9.73489C35.5331 9.61127 35.6025 9.4436 35.6025 9.26876C35.6025 9.09393 35.5331 8.92626 35.4095 8.80264C35.2858 8.67901 35.1182 8.60956 34.9433 8.60956C34.7685 8.60956 34.6008 8.67901 34.4772 8.80264L33.7125 9.56746V6.96484C33.7125 6.60071 33.4174 6.30566 33.0533 6.30566C32.6892 6.30566 32.3941 6.60071 32.3941 6.96484V11.1588C32.3941 11.2892 32.4327 11.4166 32.5052 11.525C32.5776 11.6334 32.6805 11.7179 32.8009 11.7678Z" fill="#313131"/>
</g>
<defs>
<clipPath id="clip0_885_4925">
<rect width="45" height="45" fill="white"/>
</clipPath>
</defs>
</svg>
