<svg width="45" height="45" viewBox="0 0 45 45" fill="none" xmlns="http://www.w3.org/2000/svg">
<g clip-path="url(#clip0_885_4913)">
<path d="M1.10321 28.0432C1.34996 28.2142 1.61021 28.3658 1.88171 28.4933C2.20571 28.659 2.74946 28.9365 2.78771 29.1307C2.83496 29.3872 2.80421 29.652 2.69921 29.8905C2.58746 30.1305 2.47046 30.3368 2.36921 30.5145C2.09471 30.9998 1.63496 31.8128 2.32796 32.379C2.48996 32.529 2.76971 32.7458 3.02471 32.9415C2.83721 33.27 2.75171 33.6465 2.78096 34.0238C2.82071 34.3208 2.98196 34.5877 3.22571 34.7617C3.39221 34.8787 3.56996 34.9807 3.74471 35.0805C4.18871 35.3325 4.36196 35.4503 4.41971 35.6858C4.46171 35.9873 4.43546 36.2947 4.34471 36.5857C4.2983 36.784 4.26077 36.9842 4.23221 37.1858C4.15721 37.869 4.24196 38.5605 4.47896 39.2063C4.64326 39.7866 4.98999 40.2987 5.46786 40.6668C5.94573 41.0348 6.52937 41.2393 7.13246 41.25C7.33946 41.25 7.54496 41.2275 7.74746 41.1847C9.89004 40.6769 12.0013 40.0451 14.0707 39.2925C15.7605 40.284 16.8277 43.299 17.106 44.4308C17.1463 44.5933 17.24 44.7377 17.372 44.8409C17.504 44.9441 17.6667 45.0001 17.8342 45L36.6592 44.9475C36.7768 44.9473 36.8928 44.9194 36.9976 44.8661C37.1025 44.8128 37.1934 44.7355 37.2629 44.6406C37.3324 44.5457 37.3786 44.4358 37.3977 44.3197C37.4169 44.2037 37.4085 44.0847 37.3732 43.9725C37.1878 43.4643 36.932 42.9847 36.6135 42.5475C36.4336 42.2882 36.2715 42.0171 36.1282 41.736C35.7889 41.0496 35.506 40.3367 35.2822 39.6045C35.2072 39.357 35.0992 39.0338 34.9822 38.6805C34.738 38.0003 34.5295 37.3079 34.3575 36.606C34.317 36.4137 34.2026 36.2449 34.039 36.136C33.8754 36.0271 33.6755 35.9868 33.4825 36.0238C33.2895 36.0608 33.1186 36.172 33.0068 36.3336C32.895 36.4953 32.851 36.6943 32.8845 36.888C33.0667 37.6567 33.2917 38.4135 33.5595 39.1567C33.6727 39.495 33.7762 39.804 33.8497 40.0448C34.0965 40.8509 34.4077 41.636 34.7805 42.3922C34.9515 42.732 35.1457 43.0598 35.3617 43.3725L35.412 43.4475L18.4012 43.5C17.9033 41.7209 16.9997 40.0814 15.7612 38.7105L16.4362 38.4742C16.9387 38.2987 17.3175 38.1667 17.5117 38.1045C20.7247 37.0882 22.3312 35.625 22.2877 33.7545C22.283 33.5587 22.2019 33.3726 22.0618 33.2358C21.9216 33.099 21.7335 33.0224 21.5377 33.0225H21.5242C21.3254 33.0272 21.1366 33.1107 20.9994 33.2546C20.8621 33.3984 20.7876 33.591 20.7922 33.7898C20.8102 34.5615 20.178 35.6872 17.0602 36.6735C16.6875 36.7978 16.316 36.9255 15.9457 37.0568C15.3885 37.2518 14.6797 37.4993 13.8982 37.7648H13.893C11.7823 38.5384 9.62872 39.1895 7.44296 39.7147C7.10639 39.7794 6.75786 39.7115 6.47021 39.5252C6.18256 39.3389 5.97806 39.0486 5.89946 38.715C5.73923 38.2883 5.67893 37.8306 5.72321 37.377C5.74271 37.2195 5.77871 37.0635 5.81321 36.9067C5.96603 36.3882 5.98844 35.84 5.87846 35.3108C5.77065 34.9703 5.59079 34.657 5.35112 34.3922C5.11144 34.1274 4.81756 33.9173 4.48946 33.7762L4.33421 33.6877C4.41521 33.5242 4.51196 33.369 4.62296 33.2242C4.68523 33.1453 4.73101 33.0547 4.75757 32.9578C4.78413 32.8608 4.79093 32.7595 4.77756 32.6599C4.7642 32.5603 4.73095 32.4644 4.67978 32.3778C4.62861 32.2913 4.56057 32.216 4.47971 32.1562C4.29971 32.0243 3.87521 31.7063 3.56471 31.4558C3.60071 31.3905 3.63971 31.3185 3.67721 31.2533C3.79496 31.047 3.92921 30.807 4.06046 30.5295C4.29746 30.0038 4.36796 29.418 4.26071 28.851C4.08071 27.936 3.20396 27.4875 2.56496 27.1605C2.34918 27.058 2.14223 26.9378 1.94621 26.8013C1.78673 26.6935 1.63714 26.5717 1.49921 26.4375C1.49921 26.3235 1.62146 26.0475 2.19296 25.3523C3.53626 23.6229 4.688 21.753 5.62796 19.7753C5.80346 19.4655 5.90246 19.1183 5.91671 18.762C5.87842 18.3894 5.76082 18.0293 5.57182 17.7059C5.38283 17.3825 5.1268 17.1033 4.82096 16.887C4.52096 16.6088 4.23221 16.3462 4.19846 16.1017C4.20343 15.9247 4.24319 15.7504 4.31546 15.5887C4.43771 15.267 4.57871 14.952 4.72046 14.6362C5.02796 14.0017 5.27396 13.3395 5.45396 12.6585L5.52896 12.339C5.68727 11.5892 5.8914 10.8498 6.14021 10.125C6.73143 8.49319 7.6468 6.99792 8.83121 5.72925C10.266 4.21125 12.5242 3.13725 15.5542 2.535C17.8694 2.02663 20.2187 1.68797 22.5832 1.52175C22.932 1.50675 23.2822 1.5 23.6242 1.5C23.8231 1.5 24.0139 1.42098 24.1545 1.28033C24.2952 1.13968 24.3742 0.948912 24.3742 0.75C24.3742 0.551088 24.2952 0.360322 24.1545 0.21967C24.0139 0.0790176 23.8231 0 23.6242 0C23.262 0 22.8907 0.0075 22.5127 0.02325C20.0722 0.19275 17.6475 0.54075 15.258 1.06425C11.8762 1.73925 9.41846 2.925 7.74071 4.698C6.41726 6.11413 5.39399 7.78336 4.73246 9.60525C4.46236 10.3892 4.24044 11.189 4.06796 12L3.99296 12.3165C3.83321 12.9045 3.61796 13.4768 3.35171 14.025C3.20171 14.367 3.04571 14.709 2.91146 15.063C2.73884 15.4571 2.67065 15.8889 2.71346 16.317C2.86421 16.989 3.25196 17.5845 3.80621 17.994C4.17296 18.33 4.41371 18.567 4.41671 18.7733C4.38987 18.8873 4.34694 18.9969 4.28921 19.0988C3.39106 20.9897 2.29091 22.7778 1.00796 24.432C0.464205 25.0935 -0.105795 25.8652 0.0142051 26.6377C0.173205 27.234 0.566205 27.7402 1.10321 28.0432ZM36.8242 6.912C36.6667 7.0329 36.5636 7.21133 36.5374 7.40816C36.5113 7.605 36.5642 7.80416 36.6847 7.962C36.9345 8.2935 37.164 8.64 37.371 9C37.472 9.17136 37.637 9.29557 37.8296 9.34529C38.0222 9.39501 38.2267 9.36617 38.3981 9.26513C38.5694 9.16408 38.6936 8.9991 38.7434 8.80647C38.7931 8.61385 38.7643 8.40936 38.6632 8.238C38.4247 7.82626 38.1612 7.42952 37.8742 7.05C37.7531 6.89272 37.5745 6.78988 37.3777 6.76401C37.1809 6.73814 36.9819 6.79136 36.8242 6.912ZM35.751 27.165C35.8745 27.1651 35.9962 27.1347 36.1052 27.0765C36.2142 27.0183 36.3071 26.934 36.3757 26.8313C36.7575 26.2598 37.1677 25.7062 37.5757 25.146L37.584 25.1348C37.642 25.0556 37.6839 24.9657 37.7071 24.8703C37.7302 24.7749 37.7343 24.6759 37.719 24.5789C37.7038 24.482 37.6695 24.389 37.6181 24.3053C37.5667 24.2216 37.4993 24.149 37.4197 24.0915C37.2583 23.9749 37.0574 23.9268 36.8607 23.9577C36.664 23.9886 36.4875 24.096 36.3697 24.2565C35.946 24.8325 35.5222 25.4078 35.1285 25.9988C35.0531 26.1116 35.0099 26.2429 35.0032 26.3784C34.9966 26.514 35.0269 26.6488 35.0909 26.7685C35.1548 26.8882 35.2501 26.9883 35.3665 27.0581C35.4828 27.1279 35.6152 27.1649 35.751 27.165Z" fill="#313131"/>
<path d="M8.37354 13.3502L8.44854 13.0239C8.57979 12.3977 8.74779 11.7789 8.95029 11.1714C9.40261 9.91958 10.1025 8.77174 11.0083 7.7964C11.9804 6.88001 13.1701 6.22668 14.465 5.89815C14.5611 5.87109 14.6508 5.82512 14.7288 5.76295C14.8069 5.70078 14.8718 5.62366 14.9197 5.5361C14.9675 5.44854 14.9975 5.3523 15.0077 5.25303C15.0179 5.15376 15.0082 5.05345 14.9791 4.95797C14.9501 4.8625 14.9023 4.77378 14.8385 4.69702C14.7747 4.62025 14.6963 4.55699 14.6078 4.51093C14.5192 4.46487 14.4224 4.43694 14.3229 4.42878C14.2235 4.42062 14.1234 4.43239 14.0285 4.4634C12.4831 4.86503 11.0673 5.65831 9.91779 6.76665C8.87336 7.8883 8.06599 9.20915 7.54404 10.6502C7.31904 11.3154 7.13379 11.9927 6.98904 12.6797L6.91404 13.0044C6.89051 13.1006 6.88628 13.2006 6.90159 13.2985C6.91691 13.3964 6.95147 13.4902 7.00327 13.5747C7.05508 13.6591 7.1231 13.7325 7.20342 13.7905C7.28373 13.8485 7.37474 13.89 7.4712 13.9127C7.56765 13.9353 7.66763 13.9386 7.76537 13.9224C7.86311 13.9062 7.95666 13.8708 8.04063 13.8182C8.1246 13.7656 8.19732 13.6969 8.25459 13.6161C8.31186 13.5352 8.35254 13.4438 8.37429 13.3472L8.37354 13.3502Z" fill="#313131"/>
<path d="M6.75 16.5C7.16421 16.5 7.5 16.1642 7.5 15.75C7.5 15.3358 7.16421 15 6.75 15C6.33579 15 6 15.3358 6 15.75C6 16.1642 6.33579 16.5 6.75 16.5Z" fill="#313131"/>
<path d="M31.4798 17.6483C31.9717 17.1171 32.2465 16.4207 32.25 15.6968C32.25 14.9011 31.9339 14.138 31.3713 13.5754C30.8087 13.0128 30.0457 12.6968 29.25 12.6968C28.4544 12.6968 27.6913 13.0128 27.1287 13.5754C26.5661 14.138 26.25 14.9011 26.25 15.6968C26.2539 16.4202 26.5287 17.1159 27.0203 17.6467C26.3349 18.0125 25.7618 18.5574 25.3619 19.2234C24.9621 19.8894 24.7506 20.6515 24.75 21.4282V21.75C24.75 21.9489 24.829 22.1397 24.9697 22.2803C25.1103 22.421 25.3011 22.5 25.5 22.5H33C33.1989 22.5 33.3897 22.421 33.5303 22.2803C33.671 22.1397 33.75 21.9489 33.75 21.75V21.4282C33.7491 20.6517 33.5375 19.89 33.1377 19.2243C32.7379 18.5585 32.1648 18.0138 31.4798 17.6483ZM29.25 14.25C29.5339 14.2603 29.8084 14.3539 30.0395 14.5191C30.2705 14.6843 30.4478 14.9139 30.5494 15.1792C30.6509 15.4444 30.6721 15.7337 30.6104 16.011C30.5487 16.2882 30.4068 16.5412 30.2024 16.7384C29.9979 16.9356 29.74 17.0683 29.4607 17.1199C29.1814 17.1716 28.893 17.1399 28.6316 17.0288C28.3702 16.9178 28.1472 16.7323 27.9904 16.4954C27.8337 16.2585 27.75 15.9808 27.75 15.6968C27.7575 15.3061 27.9196 14.9344 28.2008 14.6632C28.482 14.392 28.8594 14.2434 29.25 14.25ZM26.283 21C26.3859 20.3437 26.7197 19.7456 27.2243 19.3135C27.7289 18.8813 28.3711 18.6435 29.0355 18.6428H29.4645C30.1289 18.6435 30.7711 18.8813 31.2757 19.3135C31.7803 19.7456 32.1141 20.3437 32.217 21H26.283ZM35.2028 5.68725C35.1493 5.54406 35.0533 5.42064 34.9277 5.33351C34.8021 5.24638 34.6529 5.19971 34.5 5.19975H32.25V1.5C32.25 1.10218 32.092 0.720644 31.8107 0.43934C31.5294 0.158035 31.1478 0 30.75 0L27.75 0C27.3522 0 26.9706 0.158035 26.6893 0.43934C26.408 0.720644 26.25 1.10218 26.25 1.5V5.19975H24C23.847 5.19968 23.6977 5.24638 23.5721 5.33359C23.4464 5.42079 23.3504 5.54433 23.297 5.68764C23.2435 5.83094 23.2352 5.98717 23.273 6.13536C23.3109 6.28355 23.3931 6.41663 23.5088 6.51675L28.7588 11.067C28.8951 11.1852 29.0695 11.2503 29.25 11.2503C29.4305 11.2503 29.6049 11.1852 29.7413 11.067L34.9913 6.51675C35.1069 6.41657 35.1892 6.28341 35.227 6.13514C35.2648 5.98687 35.2563 5.83058 35.2028 5.68725ZM29.25 9.50775L26.0108 6.69975H27C27.1989 6.69975 27.3897 6.62073 27.5303 6.48008C27.671 6.33943 27.75 6.14866 27.75 5.94975V1.5H30.75V5.94975C30.75 6.14866 30.829 6.33943 30.9697 6.48008C31.1103 6.62073 31.3011 6.69975 31.5 6.69975H32.4893L29.25 9.50775ZM29.7413 24.183C29.6049 24.0648 29.4305 23.9997 29.25 23.9997C29.0695 23.9997 28.8951 24.0648 28.7588 24.183L23.5088 28.7333C23.3931 28.8334 23.3109 28.9664 23.273 29.1146C23.2352 29.2628 23.2435 29.4191 23.297 29.5624C23.3504 29.7057 23.4464 29.8292 23.5721 29.9164C23.6977 30.0036 23.847 30.0503 24 30.0503H26.25V33.75C26.25 34.1478 26.408 34.5294 26.6893 34.8107C26.9706 35.092 27.3522 35.25 27.75 35.25H30.75C31.1478 35.25 31.5294 35.092 31.8107 34.8107C32.092 34.5294 32.25 34.1478 32.25 33.75V30.0503H34.5C34.653 30.0503 34.8023 30.0036 34.9279 29.9164C35.0536 29.8292 35.1496 29.7057 35.203 29.5624C35.2565 29.4191 35.2648 29.2628 35.227 29.1146C35.1891 28.9664 35.1069 28.8334 34.9913 28.7333L29.7413 24.183ZM31.5 28.5503C31.3011 28.5503 31.1103 28.6293 30.9697 28.7699C30.829 28.9106 30.75 29.1013 30.75 29.3003V33.75H27.75V29.3003C27.75 29.1013 27.671 28.9106 27.5303 28.7699C27.3897 28.6293 27.1989 28.5503 27 28.5503H26.0108L29.25 25.7423L32.4893 28.5503H31.5ZM43.5 14.25H39.7995V12C39.7994 11.8472 39.7526 11.6981 39.6655 11.5726C39.5783 11.4472 39.4549 11.3513 39.3117 11.2979C39.1686 11.2445 39.0126 11.236 38.8645 11.2737C38.7165 11.3114 38.5834 11.3934 38.4833 11.5088L33.933 16.7587C33.8148 16.8951 33.7497 17.0695 33.7497 17.25C33.7497 17.4305 33.8148 17.6049 33.933 17.7413L38.4833 22.9913C38.5834 23.1066 38.7165 23.1886 38.8645 23.2263C39.0126 23.264 39.1686 23.2555 39.3117 23.2021C39.4549 23.1487 39.5783 23.0528 39.6655 22.9274C39.7526 22.8019 39.7994 22.6528 39.7995 22.5V20.25H43.5C43.8978 20.25 44.2794 20.092 44.5607 19.8107C44.842 19.5294 45 19.1478 45 18.75V15.75C45 15.3522 44.842 14.9706 44.5607 14.6893C44.2794 14.408 43.8978 14.25 43.5 14.25ZM43.5 18.75H39.0495C38.8506 18.75 38.6598 18.829 38.5192 18.9697C38.3785 19.1103 38.2995 19.3011 38.2995 19.5V20.4893L35.4923 17.25L38.2995 14.0107V15C38.2995 15.1989 38.3785 15.3897 38.5192 15.5303C38.6598 15.671 38.8506 15.75 39.0495 15.75H43.5V18.75ZM19.188 23.2028C19.3312 23.2562 19.4874 23.2645 19.6355 23.2267C19.7836 23.1889 19.9166 23.1068 20.0167 22.9913L24.567 17.7413C24.6852 17.6049 24.7503 17.4305 24.7503 17.25C24.7503 17.0695 24.6852 16.8951 24.567 16.7587L20.0167 11.5088C19.9166 11.3934 19.7835 11.3114 19.6355 11.2737C19.4874 11.236 19.3314 11.2445 19.1883 11.2979C19.0451 11.3513 18.9217 11.4472 18.8345 11.5726C18.7474 11.6981 18.7006 11.8472 18.7005 12V14.25H15C14.6022 14.25 14.2206 14.408 13.9393 14.6893C13.658 14.9706 13.5 15.3522 13.5 15.75V18.75C13.5 19.1478 13.658 19.5294 13.9393 19.8107C14.2206 20.092 14.6022 20.25 15 20.25H18.7005V22.5C18.7005 22.6529 18.7471 22.8021 18.8343 22.9277C18.9214 23.0533 19.0448 23.1492 19.188 23.2028ZM15 18.75V15.75H19.4505C19.6494 15.75 19.8402 15.671 19.9808 15.5303C20.1215 15.3897 20.2005 15.1989 20.2005 15V14.0107L23.0078 17.25L20.2005 20.4893V19.5C20.2005 19.3011 20.1215 19.1103 19.9808 18.9697C19.8402 18.829 19.6494 18.75 19.4505 18.75H15Z" fill="#313131"/>
</g>
<defs>
<clipPath id="clip0_885_4913">
<rect width="45" height="45" fill="white"/>
</clipPath>
</defs>
</svg>
